# xmcd CD database file
#
# Track frame offsets:
#	150
#	22305
#	43364
#	57432
#	74777
#	100135
#	118193
#	139222
#	163495
#	185098
#	205261
#	224082
#	241357
#	263769
#	288128
#	312665
#	334591
#
# Disc length: 4793 seconds
#
# Revision: 0
# Processed by: cddbd v1.5.2PL0 Copyright (c) Steve Scherf et al.
# Submitted via: CDex 1.81
#
DISCID=2712b711
DTITLE=Celia Cruz - Regalo Del Alma CD 2
DYEAR=2003
DGENRE=Salsa
TTITLE0=Bembele Qua
TTITLE1=El no te quiere na
TTITLE2=Azucar Negra
TTITLE3=Que le den Candela
TTITLE4=La Gua Gua
TTITLE5=Mi Vida es cantar
TTITLE6=Me estan hablando del Cielo
TTITLE7=La Voz de la Experiencia
TTITLE8=Ob-La-Di, Ob-La-Da
TTITLE9=Patica de Chivo
TTITLE10=El Guaba
TTITLE11=Amores de un Dia
TTITLE12=Que suenen las Palmas
TTITLE13=Dueme Negrita
TTITLE14=Bemba Bolora
TTITLE15=Sal si puedes
TTITLE16=Celia y Tito
EXTD=YEAR: 2003
EXTT0=
EXTT1=
EXTT2=
EXTT3=
EXTT4=
EXTT5=
EXTT6=
EXTT7=
EXTT8=
EXTT9=
EXTT10=
EXTT11=
EXTT12=
EXTT13=
EXTT14=
EXTT15=
EXTT16=
PLAYORDER=
